<svg width="10" height="13" viewBox="0 0 10 13" fill="none" xmlns="http://www.w3.org/2000/svg">
<path d="M9.00575 2.49293C8.12668 1.15339 6.67552 0.399902 5.04296 0.399902C3.42436 0.399902 1.97319 1.15339 1.06622 2.49293C0.159239 3.80455 -0.0500638 5.47897 0.508076 6.94409C0.661564 7.33479 0.898774 7.73944 1.20575 8.10223L4.73598 12.2604C4.8197 12.3441 4.90343 12.3999 5.02901 12.3999C5.15459 12.3999 5.23831 12.3441 5.32203 12.2604L8.86622 8.10223C9.17319 7.73944 9.42436 7.34874 9.56389 6.94409C10.122 5.47897 9.91273 3.80455 9.00575 2.49293ZM5.04296 7.43246C3.84296 7.43246 2.85226 6.44176 2.85226 5.24176C2.85226 4.04176 3.84296 3.05107 5.04296 3.05107C6.24296 3.05107 7.23366 4.04176 7.23366 5.24176C7.23366 6.44176 6.25691 7.43246 5.04296 7.43246Z" fill="#727272"/>
</svg>
